# xmcd
# Copyright (C) 1995-1998 Ti Kan
#
# Track frame offsets:
#       150
#       11326
#       24327
#       37905
#       52090
#
# Disc length: 1200 seconds
#
# Revision: 0
# Processed by: cddbd v1.5.1PL0 Copyright (c) Steve Scherf et al.
# Submitted via: CD-Transfer v1.0
#
DISCID=2f04ae05
DTITLE=Colorbox - State Of Mind
DYEAR=2004
DGENRE=
TTITLE0=Help
TTITLE1=State Of Mind
TTITLE2=Groove Me Up
TTITLE3=Somebody Else
TTITLE4=Somebody Else (Extended)
EXTD=
EXTT0=
EXTT1=
EXTT2=
EXTT3=
EXTT4=
PLAYORDER=
